<svg width="3339" height="986" viewBox="0 0 3339 986" fill="none" xmlns="http://www.w3.org/2000/svg">
<path d="M0 985.486H421.044C642.394 985.486 760.286 869.999 760.286 713.13C760.286 569.596 659.09 511.311 548.974 503.571H461.196V476.742V454.04H548.974C648.8 429.675 721.79 366.615 721.79 252.627C721.79 104.9 612.079 0 394.579 0H0V985.486ZM167.081 815.143V553.373H383.031C483.119 553.373 545.192 611.117 545.192 692.439C545.192 766.542 494.668 815.143 378.219 815.143H167.081ZM167.081 412.383V168.418H366.67C459.059 168.418 511.509 216.056 511.509 287.273C511.509 365.226 447.992 412.383 362.82 412.383H167.081Z" fill="#BDFF00"/>
<path d="M1009 985.486H1217.36V705.431L1319.85 580.32L1589.8 985.486H1839.06L1469.02 441.255L1834.73 0H1584.99L1246.86 429.274L1159.06 517.071L1126.55 487.061L1217.36 396.253V0H1009V985.486Z" fill="#BDFF00"/>
<path d="M2267.98 985.486H2471.04L2658.23 341.167H2665.93L2853.59 985.486H3056.66L3338.64 0H3111.03L2968.38 676.932V768.736H2918.85V676.932L2759.76 0H2564.88L2402.89 676.932V767.74H2353.36V676.932L2213.6 0H1986L2267.98 985.486Z" fill="#BDFF00"/>
</svg>
